<svg width="220" height="53" viewBox="0 0 220 53" fill="none" xmlns="http://www.w3.org/2000/svg">
<path d="M196.895 12.3156C196.895 21.8241 196.895 31.2448 196.895 40.7972C195.187 40.7972 193.511 40.8348 191.843 40.7575C191.588 40.7449 191.279 40.2479 191.128 39.9159C188.658 34.4317 186.208 28.9392 183.752 23.4467C183.669 23.2609 183.572 23.0813 183.355 22.6385C183.355 28.8202 183.355 34.7304 183.355 40.722C181.594 40.722 179.931 40.722 178.2 40.722C178.2 31.2803 178.2 21.8366 178.2 12.2341C180.034 12.2341 181.85 12.2049 183.661 12.2696C183.903 12.278 184.208 12.7249 184.349 13.0319C186.743 18.2487 189.114 23.4739 191.491 28.697C191.533 28.7868 191.586 28.8703 191.764 29.194C191.764 23.43 191.764 17.9104 191.764 12.3156C193.516 12.3156 195.149 12.3156 196.895 12.3156Z" fill="white"/>
<path d="M103.157 12.3359C103.157 13.2172 103.157 14.0797 103.157 14.9401C103.155 20.7522 103.182 26.5621 103.126 32.372C103.116 33.5311 102.923 34.7298 102.587 35.8388C101.709 38.7187 99.6311 40.3434 96.7972 41.0222C94.4075 41.5944 92.0074 41.4774 89.6816 40.7319C86.7094 39.7816 84.6253 36.8099 84.5943 33.3556C84.5303 26.5015 84.5737 19.6453 84.5737 12.7912C84.5737 12.6575 84.6088 12.5218 84.6377 12.3213C86.4264 12.3213 88.1986 12.3213 90.1381 12.3213C90.1381 12.6763 90.1381 13.0397 90.1381 13.4031C90.1402 19.5263 90.1422 25.6515 90.1464 31.7747C90.1464 32.1924 90.134 32.6122 90.1712 33.0257C90.3922 35.5526 91.681 36.7159 94.1431 36.6365C96.2292 36.5676 97.5656 35.1224 97.5801 32.773C97.6172 26.301 97.6131 19.8291 97.6234 13.3571C97.6234 13.046 97.6234 12.7348 97.6234 12.3317C99.4349 12.3359 101.205 12.3359 103.157 12.3359Z" fill="white"/>
<path d="M75.5103 20.2674C75.2831 19.3903 75.1716 18.557 74.8535 17.8115C74.2773 16.4582 73.0731 16.0363 71.7284 16.0656C70.4107 16.0948 69.256 16.5835 68.8078 17.9514C68.3906 19.2295 68.3885 20.5828 69.5266 21.4933C70.5924 22.3454 71.7904 23.0471 72.9946 23.6924C75.027 24.7847 77.1462 25.7223 78.7387 27.485C81.1842 30.1915 81.4528 33.3513 80.2982 36.6154C79.1993 39.7209 76.5989 40.9656 73.5378 41.2036C72.0176 41.3206 70.4292 41.2955 68.9442 40.9865C65.3275 40.2367 63.2062 37.6471 62.9171 33.913C62.8551 33.1257 62.9088 32.33 62.9088 31.4759C64.6996 31.4759 66.4325 31.4759 68.1841 31.4759C68.2605 32.2382 68.3018 32.9628 68.4113 33.675C68.7046 35.5859 69.7249 36.5695 71.588 36.7846C73.0958 36.96 74.7544 36.0349 75.217 34.763C75.8264 33.084 75.3286 31.1856 73.8311 30.2479C72.3791 29.3395 70.8093 28.621 69.287 27.8316C67.3517 26.8292 65.4411 25.8017 64.2287 23.8574C61.6406 19.7036 63.2785 12.177 70.4912 11.753C72.4266 11.6403 74.3454 11.6779 76.1568 12.4673C79.1126 13.7558 80.6699 16.6357 80.3849 20.2654C78.7594 20.2674 77.1256 20.2674 75.5103 20.2674Z" fill="white"/>
<path d="M140.964 31.5039C140.964 32.2223 140.912 32.9157 140.974 33.5986C141.137 35.4051 142.073 36.3929 143.87 36.7312C145.392 37.0173 147.106 36.2989 147.714 35.119C148.449 33.6863 148.236 31.7545 146.995 30.725C146.001 29.9 144.805 29.3236 143.682 28.6658C141.905 27.6279 139.997 26.78 138.359 25.5562C135.676 23.5513 135.407 20.6171 136.004 17.5597C136.591 14.5524 138.547 12.7647 141.404 12.0421C143.665 11.472 145.964 11.5493 148.211 12.2677C151.481 13.3119 153.231 16.1918 153.034 20.2704C151.407 20.2704 149.773 20.2704 148.094 20.2704C147.978 19.6544 147.904 19.007 147.73 18.3888C147.325 16.9499 146.22 16.1542 144.651 16.1062C143.066 16.0581 141.86 16.7494 141.389 17.9774C140.846 19.3975 141.141 20.922 142.403 21.8012C143.779 22.7577 145.318 23.474 146.764 24.3324C148.063 25.103 149.428 25.8047 150.595 26.7486C154.447 29.8604 154.573 36.3741 150.892 39.4148C148.98 40.9957 146.66 41.4029 144.304 41.3257C142.854 41.2776 141.344 41.0041 139.993 40.484C137.163 39.396 135.926 37.0131 135.608 34.0956C135.519 33.2728 135.593 32.4312 135.593 31.5081C137.304 31.5039 139.037 31.5039 140.964 31.5039Z" fill="white"/>
<path d="M214.278 30.6901C216.158 30.6901 217.905 30.6901 219.663 30.6901C220.915 34.3009 218.541 39.3068 214.838 40.6496C212.07 41.6521 209.255 41.6625 206.468 40.681C203.403 39.5992 201.705 37.2247 201.551 34.1192C201.303 29.1259 201.313 24.1054 201.503 19.1078C201.662 14.9227 204.566 12.0929 208.71 11.8256C210.465 11.7128 212.299 11.813 214.008 12.2098C217.279 12.9658 219.266 15.4656 219.63 18.8488C219.752 19.9828 219.801 21.1231 219.888 22.3386C218.004 22.3386 216.232 22.3386 214.39 22.3386C214.295 21.2693 214.299 20.1604 214.08 19.0995C213.644 16.9839 212.213 15.9689 210.141 16.159C208.342 16.324 207.076 17.7775 207.061 19.8283C207.032 24.2119 207.012 28.5954 207.063 32.979C207.096 35.815 209.422 37.3729 212.068 36.4311C213.413 35.9528 214.21 34.7729 214.272 33.1105C214.303 32.3462 214.278 31.5818 214.278 30.6901Z" fill="white"/>
<path d="M154.875 12.2341C156.791 12.2341 158.603 12.2069 160.408 12.2654C160.658 12.2737 161.015 12.6664 161.121 12.9566C162.409 16.4568 163.661 19.9716 164.925 23.4801C164.995 23.6743 165.092 23.856 165.27 24.2549C165.95 22.4275 166.571 20.7673 167.187 19.1049C167.928 17.0979 168.691 15.0973 169.389 13.0736C169.604 12.4492 169.889 12.2069 170.56 12.2278C172.105 12.28 173.652 12.2445 175.337 12.2445C174.191 15.0304 173.086 17.7391 171.96 20.4394C170.684 23.501 169.378 26.548 168.118 29.6158C167.928 30.0794 167.84 30.6182 167.835 31.1236C167.813 34.0098 167.829 36.896 167.829 39.7821C167.829 40.087 167.804 40.392 167.79 40.7491C165.999 40.7491 164.262 40.7491 162.399 40.7491C162.399 40.016 162.399 39.3018 162.399 38.5855C162.401 36.0481 162.478 33.5044 162.364 30.9733C162.323 30.046 161.891 29.1125 161.523 28.2312C159.427 23.194 157.293 18.1693 155.176 13.1404C155.075 12.8919 155.007 12.6309 154.875 12.2341Z" fill="white"/>
<path d="M127.65 40.7624C125.741 40.7624 123.998 40.7624 122.114 40.7624C122.114 39.9395 122.114 39.1543 122.114 38.367C122.11 31.7217 122.108 25.0785 122.098 18.4332C122.095 16.7479 122.207 16.9504 120.577 16.9483C119.142 16.9442 117.706 16.9483 116.225 16.9483C116.225 15.3465 116.225 13.868 116.225 12.3184C122.031 12.3184 127.788 12.3184 133.608 12.3184C133.608 13.8366 133.608 15.311 133.608 16.9087C131.617 16.9087 129.674 16.9087 127.65 16.9087C127.65 24.9093 127.65 32.7909 127.65 40.7624Z" fill="white"/>
<path d="M107.571 40.7228C107.571 31.2081 107.571 21.7957 107.571 12.3164C109.382 12.3164 111.15 12.3164 112.997 12.3164C112.997 21.7664 112.997 31.2039 112.997 40.7228C111.235 40.7228 109.44 40.7228 107.571 40.7228Z" fill="white"/>
<path d="M0.0382711 0C16.9172 0 33.7248 0 50.615 0C50.6312 0.337003 50.6571 0.654375 50.6571 0.970111C50.6765 8.79153 50.7137 16.6146 50.7073 24.436C50.6992 33.895 46.219 40.8265 38.5076 45.7097C34.5079 48.2438 30.2575 50.3754 26.1009 52.6527C25.7595 52.8392 25.1657 52.9226 24.8566 52.7492C20.1386 50.0941 15.3186 47.5943 10.7866 44.6431C5.31616 41.08 1.88925 35.8843 0.541466 29.3994C0.222722 27.8633 0.0431253 26.2715 0.0334174 24.7027C-0.0183584 16.6898 0.00591022 8.67702 0.00429223 0.664191C0.00591022 0.474422 0.0237092 0.286289 0.0382711 0ZM3.57682 3.57943C3.57682 11.1162 3.50562 18.5597 3.61241 26C3.65448 28.9561 4.54923 31.7683 5.96659 34.3841C8.15897 38.4315 11.458 41.3402 15.3477 43.5994C18.4478 45.3989 21.6093 47.0905 24.766 48.7853C25.0751 48.9522 25.6009 48.9391 25.931 48.7919C26.8387 48.3878 27.7043 47.8823 28.5715 47.3899C32.0858 45.3973 35.7732 43.7008 38.9865 41.1913C44.4764 36.9051 47.2998 31.302 47.2545 24.2381C47.2124 17.6403 47.2415 11.0426 47.2383 4.44484C47.2383 4.15855 47.2383 3.87227 47.2383 3.57943C32.6133 3.57943 18.1145 3.57943 3.57682 3.57943Z" fill="white"/>
<path d="M14.6435 17.9614C13.7812 17.4591 12.7699 17.1974 12.3913 16.5561C12.0224 15.9295 12.4059 14.8973 12.2716 14.0727C11.9771 12.2716 12.6486 11.1591 14.3151 10.5097C15.0772 10.2119 15.7583 9.69824 16.5366 9.24836C18.0931 15.5304 19.6334 21.7404 21.1721 27.952C21.2207 27.9471 21.2692 27.9422 21.3178 27.9373C21.8145 25.2053 22.3112 22.4717 22.8063 19.7396C23.0814 18.2198 23.3144 16.6902 23.6477 15.1835C23.7658 14.6502 23.6234 14.3247 23.3079 13.955C21.6543 12.0164 20.0153 10.0663 18.373 8.11956C18.3245 8.06231 18.2954 7.98705 18.2128 7.84473C23.0458 7.84473 27.8188 7.84473 32.6583 7.84473C32.5806 7.9936 32.5369 8.14247 32.4431 8.25044C30.8251 10.1121 29.2184 11.9853 27.5697 13.8175C27.1312 14.305 26.9969 14.7189 27.128 15.4028C27.89 19.3699 28.5761 23.3534 29.2912 27.3304C29.3284 27.5414 29.3964 27.7475 29.6051 27.9815C31.1179 21.7584 32.6308 15.5353 34.1662 9.22382C35.5075 10.0254 36.7388 10.7436 37.9459 11.501C38.1335 11.6188 38.318 11.91 38.3228 12.126C38.3568 13.4887 38.3601 14.8514 38.3196 16.2142C38.3131 16.4449 38.0979 16.7508 37.8925 16.8816C37.3278 17.2399 36.7178 17.5246 36.0382 17.8845C36.5398 18.3671 36.9654 18.8726 37.4863 19.2439C37.92 19.5531 37.9345 19.7854 37.7096 20.232C35.4752 24.6802 33.2682 29.143 31.0419 33.596C29.4061 36.8663 27.7557 40.1283 26.1102 43.3937C25.908 43.7961 25.6944 44.1936 25.421 44.7188C24.7722 43.446 24.1865 42.2976 23.6024 41.1492C20.0719 34.2226 16.5479 27.2911 12.9964 20.3744C12.7295 19.8541 12.7812 19.5711 13.223 19.2309C13.7116 18.8579 14.1436 18.4145 14.6435 17.9614Z" fill="white"/>
<path d="M26.6431 46.356C31.1815 37.4025 35.6148 28.6617 40.0303 19.9111C40.2035 19.5675 40.2617 19.134 40.2666 18.7414C40.2908 16.8191 40.2779 14.8953 40.2779 12.7686C42.0285 13.9006 43.632 14.9247 45.2127 15.9815C45.3665 16.0846 45.4522 16.3971 45.4538 16.613C45.4652 19.8015 45.6011 22.9981 45.4182 26.1751C45.195 30.0408 43.7452 33.4861 41.2826 36.4913C38.9447 39.3427 35.8899 41.1995 32.7526 42.9565C30.7851 44.0591 28.8128 45.1487 26.6431 46.356Z" fill="white"/>
<path d="M10.5119 12.8213C10.5119 14.9856 10.499 16.9749 10.5232 18.9626C10.5281 19.3258 10.6203 19.7217 10.7837 20.044C14.9614 28.3447 19.152 36.6373 23.3426 44.9315C23.5432 45.3307 23.7632 45.72 23.9105 46.1699C19.6778 43.6898 15.0601 41.8985 11.3986 38.5252C7.81309 35.2206 5.86988 31.0522 5.51878 26.2049C5.28741 23.0066 5.37964 19.7822 5.34889 16.5692C5.34728 16.3631 5.46539 16.0654 5.62557 15.9607C7.19664 14.9267 8.78712 13.9223 10.5119 12.8213Z" fill="white"/>
</svg>
