<svg width="181" height="44" viewBox="0 0 181 44" fill="none" xmlns="http://www.w3.org/2000/svg">
<path d="M161.661 10.1123C161.661 17.9193 161.661 25.6542 161.661 33.4972C160.259 33.4972 158.883 33.528 157.513 33.4646C157.304 33.4543 157.05 33.0462 156.926 32.7736C154.898 28.2708 152.887 23.7612 150.87 19.2516C150.802 19.099 150.723 18.9515 150.545 18.588C150.545 23.6635 150.545 28.516 150.545 33.4355C149.098 33.4355 147.733 33.4355 146.312 33.4355C146.312 25.6834 146.312 17.9296 146.312 10.0454C147.818 10.0454 149.308 10.0214 150.796 10.0746C150.994 10.0815 151.245 10.4484 151.36 10.7005C153.326 14.9837 155.273 19.2739 157.225 23.5623C157.259 23.636 157.303 23.7046 157.449 23.9704C157.449 19.2379 157.449 14.706 157.449 10.1123C158.887 10.1123 160.228 10.1123 161.661 10.1123Z" fill="black"/>
<path d="M84.6975 10.1282C84.6975 10.8518 84.6975 11.56 84.6975 12.2664C84.6958 17.0384 84.7179 21.8086 84.6721 26.5789C84.6636 27.5305 84.5059 28.5148 84.2295 29.4253C83.5087 31.7898 81.8027 33.1238 79.4759 33.6811C77.5138 34.1509 75.5432 34.0549 73.6337 33.4428C71.1933 32.6626 69.4822 30.2226 69.4567 27.3865C69.4042 21.7589 69.4398 16.1296 69.4398 10.502C69.4398 10.3923 69.4686 10.2808 69.4923 10.1162C70.961 10.1162 72.416 10.1162 74.0085 10.1162C74.0085 10.4077 74.0085 10.7061 74.0085 11.0044C74.0101 16.0319 74.0118 21.061 74.0152 26.0885C74.0152 26.4314 74.0051 26.7761 74.0356 27.1156C74.217 29.1904 75.2753 30.1454 77.2968 30.0803C79.0096 30.0237 80.1068 28.8371 80.1187 26.9081C80.1492 21.5943 80.1458 16.2805 80.1543 10.9667C80.1543 10.7112 80.1543 10.4557 80.1543 10.1248C81.6416 10.1282 83.0949 10.1282 84.6975 10.1282Z" fill="black"/>
<path d="M61.9983 16.6402C61.8117 15.92 61.7202 15.2359 61.459 14.6237C60.9859 13.5126 59.9972 13.1662 58.8931 13.1902C57.8112 13.2142 56.8632 13.6155 56.4952 14.7386C56.1526 15.788 56.1509 16.8991 57.0853 17.6467C57.9604 18.3463 58.944 18.9224 59.9327 19.4523C61.6015 20.349 63.3414 21.1189 64.6489 22.5661C66.6569 24.7884 66.8773 27.3827 65.9293 30.0627C65.0271 32.6125 62.892 33.6344 60.3787 33.8299C59.1306 33.9259 57.8264 33.9053 56.6071 33.6516C53.6376 33.036 51.896 30.9098 51.6585 27.8439C51.6077 27.1975 51.6518 26.5442 51.6518 25.8429C53.1221 25.8429 54.5449 25.8429 55.983 25.8429C56.0458 26.4688 56.0797 27.0638 56.1696 27.6485C56.4104 29.2174 57.2481 30.025 58.7778 30.2016C60.0158 30.3457 61.3776 29.5861 61.7575 28.5418C62.2578 27.1632 61.8491 25.6046 60.6195 24.8347C59.4273 24.0888 58.1385 23.4989 56.8886 22.8508C55.2996 22.0277 53.7309 21.1841 52.7354 19.5877C50.6105 16.1772 51.9553 9.9975 57.8773 9.64942C59.4663 9.55683 61.0418 9.58769 62.5291 10.2358C64.9559 11.2938 66.2346 13.6583 66.0006 16.6385C64.6659 16.6402 63.3245 16.6402 61.9983 16.6402Z" fill="black"/>
<path d="M115.739 25.8669C115.739 26.4567 115.696 27.026 115.747 27.5867C115.881 29.0699 116.649 29.881 118.125 30.1587C119.375 30.3937 120.782 29.8038 121.281 28.835C121.884 27.6587 121.71 26.0727 120.691 25.2273C119.875 24.55 118.893 24.0768 117.97 23.5366C116.512 22.6844 114.945 21.9883 113.6 20.9835C111.397 19.3374 111.177 16.9282 111.667 14.4179C112.148 11.9488 113.754 10.481 116.1 9.88774C117.957 9.41963 119.844 9.48308 121.689 10.0729C124.374 10.9303 125.81 13.2948 125.649 16.6436C124.313 16.6436 122.972 16.6436 121.593 16.6436C121.498 16.1378 121.437 15.6062 121.294 15.0987C120.962 13.9173 120.055 13.264 118.766 13.2245C117.465 13.1851 116.475 13.7526 116.088 14.7609C115.642 15.9269 115.884 17.1786 116.921 17.9005C118.05 18.6858 119.314 19.2739 120.501 19.9787C121.567 20.6114 122.688 21.1875 123.646 21.9626C126.809 24.5174 126.913 29.8655 123.891 32.3621C122.32 33.6601 120.416 33.9945 118.481 33.931C117.29 33.8916 116.051 33.667 114.942 33.24C112.618 32.3467 111.602 30.3902 111.341 27.9948C111.268 27.3192 111.329 26.6282 111.329 25.8703C112.734 25.8669 114.156 25.8669 115.739 25.8669Z" fill="black"/>
<path d="M175.934 25.1982C177.477 25.1982 178.912 25.1982 180.355 25.1982C181.383 28.1628 179.434 32.2729 176.393 33.3755C174.121 34.1985 171.81 34.2071 169.522 33.4012C167.005 32.513 165.611 30.5634 165.484 28.0137C165.28 23.9139 165.289 19.7918 165.445 15.6885C165.575 12.2523 167.96 9.92889 171.362 9.70941C172.803 9.61682 174.309 9.69912 175.712 10.0249C178.398 10.6456 180.029 12.6981 180.328 15.4759C180.428 16.407 180.469 17.3432 180.54 18.3411C178.993 18.3411 177.538 18.3411 176.025 18.3411C175.947 17.4632 175.951 16.5527 175.771 15.6817C175.413 13.9447 174.238 13.1113 172.537 13.2674C171.06 13.4028 170.02 14.5963 170.009 16.2801C169.985 19.8792 169.968 23.4783 170.01 27.0774C170.037 29.406 171.947 30.6851 174.119 29.9118C175.223 29.5192 175.878 28.5504 175.929 27.1855C175.954 26.5579 175.934 25.9303 175.934 25.1982Z" fill="black"/>
<path d="M127.16 10.0442C128.734 10.0442 130.221 10.022 131.704 10.07C131.909 10.0768 132.202 10.3992 132.289 10.6375C133.347 13.5113 134.375 16.3972 135.413 19.2778C135.47 19.4373 135.55 19.5865 135.696 19.914C136.254 18.4136 136.764 17.0504 137.27 15.6856C137.878 14.0377 138.504 12.3951 139.077 10.7335C139.254 10.2209 139.488 10.022 140.039 10.0391C141.307 10.082 142.578 10.0528 143.961 10.0528C143.02 12.3402 142.113 14.5642 141.189 16.7812C140.141 19.295 139.069 21.7967 138.034 24.3156C137.878 24.6962 137.805 25.1386 137.802 25.5536C137.783 27.9233 137.797 30.293 137.797 32.6626C137.797 32.913 137.777 33.1633 137.765 33.4565C136.294 33.4565 134.868 33.4565 133.338 33.4565C133.338 32.8547 133.338 32.2683 133.338 31.6801C133.34 29.5968 133.403 27.5083 133.31 25.4301C133.276 24.6688 132.921 23.9023 132.619 23.1787C130.898 19.0429 129.146 14.9174 127.408 10.7884C127.325 10.5844 127.269 10.37 127.16 10.0442Z" fill="black"/>
<path d="M104.807 33.4683C103.24 33.4683 101.809 33.4683 100.262 33.4683C100.262 32.7927 100.262 32.148 100.262 31.5015C100.259 26.0454 100.257 20.591 100.249 15.1349C100.247 13.7511 100.339 13.9174 99.0007 13.9157C97.8221 13.9123 96.6434 13.9157 95.4275 13.9157C95.4275 12.6006 95.4275 11.3866 95.4275 10.1143C100.195 10.1143 104.921 10.1143 109.7 10.1143C109.7 11.3608 109.7 12.5714 109.7 13.8831C108.065 13.8831 106.469 13.8831 104.807 13.8831C104.807 20.4521 104.807 26.9233 104.807 33.4683Z" fill="black"/>
<path d="M88.3215 33.4354C88.3215 25.6233 88.3215 17.8953 88.3215 10.1123C89.8088 10.1123 91.2605 10.1123 92.7766 10.1123C92.7766 17.8713 92.7766 25.6199 92.7766 33.4354C91.33 33.4354 89.8563 33.4354 88.3215 33.4354Z" fill="black"/>
<path d="M0.0316667 0C13.8901 0 27.6901 0 41.5578 0C41.5711 0.276697 41.5924 0.537276 41.5924 0.796512C41.6083 7.21831 41.6389 13.6414 41.6336 20.0632C41.6269 27.8296 37.9484 33.5207 31.617 37.5301C28.3331 39.6107 24.8432 41.3609 21.4304 43.2306C21.1501 43.3837 20.6626 43.4522 20.4088 43.3098C16.5351 41.1298 12.5776 39.0774 8.85659 36.6543C4.36509 33.7289 1.55142 29.4629 0.444816 24.1385C0.183111 22.8772 0.0356523 21.5703 0.0276815 20.2822C-0.014829 13.7032 0.00509674 7.12428 0.00376829 0.545335C0.00509674 0.389525 0.0197106 0.235058 0.0316667 0ZM2.937 2.9389C2.937 9.12698 2.87854 15.2385 2.96622 21.3473C3.00076 23.7745 3.7354 26.0834 4.89912 28.2312C6.69918 31.5542 9.4079 33.9424 12.6015 35.7974C15.1468 37.2749 17.7426 38.6637 20.3344 40.0553C20.5882 40.1923 21.0199 40.1815 21.2909 40.0607C22.0362 39.7289 22.7469 39.3138 23.459 38.9095C26.3444 37.2735 29.3719 35.8806 32.0102 33.8202C36.5177 30.301 38.8358 25.7006 38.7986 19.9007C38.7641 14.4836 38.788 9.06653 38.7854 3.64945C38.7854 3.41439 38.7854 3.17933 38.7854 2.9389C26.7774 2.9389 14.8732 2.9389 2.937 2.9389Z" fill="black"/>
<path d="M12.0235 14.7472C11.3154 14.3348 10.4851 14.1199 10.1743 13.5934C9.87137 13.079 10.1862 12.2314 10.0759 11.5544C9.83417 10.0756 10.3855 9.16222 11.7538 8.62897C12.3795 8.38451 12.9388 7.96275 13.5778 7.59338C14.8557 12.7512 16.1204 17.85 17.3838 22.9501C17.4236 22.946 17.4635 22.942 17.5033 22.938C17.9112 20.6949 18.319 18.4504 18.7255 16.2073C18.9514 14.9594 19.1427 13.7035 19.4163 12.4665C19.5133 12.0286 19.3964 11.7613 19.1373 11.4577C17.7797 9.86605 16.4339 8.26497 15.0856 6.66657C15.0457 6.61956 15.0218 6.55778 14.954 6.44092C18.9221 6.44092 22.8411 6.44092 26.8145 6.44092C26.7507 6.56315 26.7148 6.68538 26.6378 6.77403C25.3093 8.30258 23.9902 9.84053 22.6365 11.3449C22.2765 11.7452 22.1662 12.085 22.2738 12.6465C22.8995 15.9037 23.4628 19.1744 24.05 22.4397C24.0805 22.6129 24.1363 22.7822 24.3077 22.9742C25.5498 17.8648 26.7919 12.7553 28.0526 7.57323C29.1539 8.23139 30.1648 8.82105 31.1559 9.44295C31.31 9.53966 31.4614 9.77875 31.4654 9.95605C31.4933 11.0749 31.496 12.1938 31.4627 13.3127C31.4574 13.5021 31.2807 13.7532 31.112 13.8607C30.6484 14.1549 30.1476 14.3886 29.5896 14.6841C30.0014 15.0803 30.3508 15.4954 30.7786 15.8003C31.1346 16.0541 31.1466 16.2449 30.9619 16.6116C29.1273 20.2637 27.3153 23.9279 25.4874 27.5841C24.1443 30.2691 22.7893 32.9474 21.4382 35.6284C21.2722 35.9589 21.0968 36.2853 20.8723 36.7164C20.3396 35.6714 19.8587 34.7285 19.3791 33.7856C16.4804 28.0985 13.5871 22.4074 10.6711 16.7284C10.4519 16.3013 10.4944 16.0689 10.8571 15.7895C11.2583 15.4833 11.613 15.1193 12.0235 14.7472Z" fill="black"/>
<path d="M21.8752 38.0604C25.6016 30.7092 29.2415 23.5325 32.8669 16.3478C33.009 16.0657 33.0568 15.7098 33.0608 15.3874C33.0808 13.8091 33.0701 12.2295 33.0701 10.4834C34.5075 11.4129 35.824 12.2537 37.1219 13.1214C37.2481 13.206 37.3185 13.4626 37.3199 13.6399C37.3292 16.2578 37.4407 18.8824 37.2906 21.4908C37.1073 24.6648 35.917 27.4936 33.8951 29.961C31.9755 32.3022 29.4674 33.8267 26.8915 35.2693C25.2761 36.1746 23.6567 37.0692 21.8752 38.0604Z" fill="black"/>
<path d="M8.63071 10.5264C8.63071 12.3034 8.62008 13.9367 8.64001 15.5687C8.644 15.8669 8.71972 16.1919 8.85389 16.4566C12.284 23.2719 15.7247 30.0805 19.1654 36.8905C19.3301 37.2182 19.5108 37.5379 19.6316 37.9073C16.1564 35.871 12.365 34.4002 9.35871 31.6306C6.41485 28.9173 4.81938 25.4949 4.5311 21.515C4.34113 18.8891 4.41686 16.2416 4.39162 13.6036C4.39029 13.4344 4.48726 13.1899 4.61878 13.1039C5.90871 12.2551 7.21458 11.4303 8.63071 10.5264Z" fill="black"/>
</svg>
